<?xml version="1.0" encoding="utf-8"?>
<!-- Generator: Adobe Illustrator 19.0.1, SVG Export Plug-In . SVG Version: 6.00 Build 0)  -->
<svg version="1.1" id="Слой_1" xmlns="http://www.w3.org/2000/svg" xmlns:xlink="http://www.w3.org/1999/xlink" x="0px" y="0px"
	 viewBox="654 4 1920 785" style="enable-background:new 654 4 1920 785;" xml:space="preserve">
<style type="text/css">
	.st0{fill:#FFFFFF;}
	.st1{fill:#BCBEC0;}
</style>
<title>Asset 1</title>
<g id="Layer_2">
	<g id="What_We_Offer_Panel">
		<g id="BG_Illustration">
			<g id="Clouds">
				<path class="st0" d="M2423.7,425.2c-0.2-54.2-59-49-66.1-6.4c-20.9-17.2-43-6.9-41.6,21.1h158.7
					C2474.7,407.5,2436.6,408.7,2423.7,425.2z"/>
				<path class="st0" d="M2300.1,439.9h-40.6C2256.8,412.8,2295.6,414.7,2300.1,439.9z"/>
				<path class="st1" d="M2493.2,442.7c-1.5-0.1-2.7-1.4-2.6-2.9c0.1-1.4,1.2-2.5,2.6-2.6h63.2c1.5,0.1,2.7,1.4,2.6,2.9
					c-0.1,1.4-1.2,2.5-2.6,2.6H2493.2z M2355.8,414.1c3.6-13.9,12.7-23.5,23.1-28.1c5.1-2.2,10.6-3.2,16.1-2.9
					c5.5,0.3,10.8,2.1,15.4,5.2c8.2,5.6,14.4,15.6,15.8,30.7c4.2-3.3,9.1-5.6,14.3-6.8h0.1c5.6-1.4,11.5-1.4,17.1,0
					c5.7,1.4,10.8,4.7,14.3,9.4c3.3,4.5,5.4,10.6,5.4,18.3c0,1.5-1.2,2.7-2.7,2.7c0,0,0,0,0,0h-158.7c-1.5,0-2.7-1.2-2.7-2.7
					c0,0,0,0,0,0v-0.1c-0.5-10.4,2.1-18.5,6.7-24c4-4.9,9.9-7.9,16.2-8.1C2342.2,407.4,2349,409.5,2355.8,414.1L2355.8,414.1z
					 M2381.1,391c-9.9,4.3-18.4,14.1-20.8,28.3l0,0c-0.2,1.5-1.6,2.5-3.1,2.3c-0.5-0.1-0.9-0.3-1.3-0.6c-6.8-5.6-13.6-8-19.5-7.8
					c-2.4,0.1-4.7,0.7-6.8,1.7c-2.1,1.1-4,2.6-5.4,4.4c-3.4,4.1-5.4,10.1-5.5,17.9h153.2c-0.2-4.4-1.7-8.7-4.2-12.4
					c-2.8-3.7-6.8-6.3-11.3-7.4c-4.8-1.2-9.7-1.2-14.5,0h-0.1c-6.4,1.5-12.2,4.8-15.8,9.4l0,0c-0.9,1.2-2.6,1.4-3.8,0.5
					c-0.7-0.5-1.1-1.3-1.1-2.2c-0.1-16.5-5.8-27.1-13.7-32.5c-3.8-2.5-8.1-4-12.7-4.2C2390,388.2,2385.4,389.1,2381.1,391
					L2381.1,391z M2300.1,442.7h-40.6c-1.5,0-2.7-1.2-2.7-2.7c-0.9-9.4,2.7-15.8,8.3-19.3c2.8-1.7,5.9-2.7,9.2-3
					c13.7-1.2,26,8.3,28.5,21.8c0.3,1.5-0.7,2.9-2.2,3.2c0,0,0,0,0,0C2300.5,442.6,2300.3,442.7,2300.1,442.7L2300.1,442.7z
					 M2262.1,437.2h34.4c-3.2-9.1-12.2-14.9-21.8-14.1c-2.4,0.2-4.7,0.9-6.8,2.2C2264.5,427.5,2262.2,431.4,2262.1,437.2
					L2262.1,437.2z"/>
				<path class="st0" d="M747.4,288c10.5-44.9,64.1-37.7,66.2,6.4c12.9-16.5,41.8-17,47,14.7H705.4C704,281,726.5,270.8,747.4,288z"
					/>
				<path class="st1" d="M684.3,306.3h-26.7c-0.9-2.6-2.1-5-3.6-7.2v12.2c0.5,0.4,1,0.5,1.6,0.5h28.7c1.5,0,2.7-1.2,2.7-2.7
					C687.1,307.5,685.8,306.3,684.3,306.3L684.3,306.3z"/>
				<path class="st1" d="M860.5,311.8c0.1,0,0.3,0,0.4,0c1.5-0.2,2.5-1.6,2.3-3.1c-1.8-10.9-6.3-18.3-12-22.8
					c-2.9-2.3-6.2-3.9-9.8-4.7c-3.4-0.8-7-0.9-10.5-0.3c-5.7,1-11,3.5-15.4,7.3c-2-12.5-8.2-21.7-16.1-27.3
					c-4.8-3.3-10.3-5.4-16.1-6c-5.8-0.6-11.6,0.4-16.8,2.8c-9,4.1-16.8,12.5-20.8,25.5c-6.8-4.7-13.8-6.8-20.1-6.5
					c-6.4,0.2-12.4,3.2-16.4,8.2c-4.5,5.5-7.1,13.6-6.7,23.9v0.1c0,1.5,1.2,2.7,2.7,2.7L860.5,311.8z M708,306.3
					c0.1-7.7,2.1-13.7,5.5-17.8c1.5-1.9,3.4-3.4,5.6-4.5c2.2-1.1,4.5-1.7,6.9-1.8c6-0.3,12.9,2.2,19.7,7.8c1.2,1,2.9,0.8,3.8-0.4
					c0,0,0,0,0,0c0.3-0.3,0.5-0.7,0.5-1.1l0,0c3.2-13.5,10.4-22,18.9-25.8c4.4-2,9.2-2.8,14-2.3c4.8,0.5,9.5,2.2,13.5,5
					c7.9,5.5,13.8,15.4,14.4,29c0.1,1.5,1.4,2.7,2.9,2.6c0.8,0,1.6-0.4,2.1-1.1c4-5.1,9.8-8.6,16.2-9.7c2.8-0.5,5.6-0.4,8.4,0.2
					c2.8,0.6,5.4,1.9,7.6,3.6c4.2,3.3,7.5,8.5,9.3,16.2L708,306.3z"/>
			</g>
		</g>
	</g>
</g>
</svg>
