<?xml version="1.0" encoding="utf-8"?>
<!-- Generator: Adobe Illustrator 19.0.1, SVG Export Plug-In . SVG Version: 6.00 Build 0)  -->
<svg version="1.1" id="Слой_1" xmlns="http://www.w3.org/2000/svg" xmlns:xlink="http://www.w3.org/1999/xlink" x="0px" y="0px"
	 viewBox="662 28.9 1920 785" style="enable-background:new 662 28.9 1920 785;" xml:space="preserve">
<style type="text/css">
	.st0{fill:#FFFFFF;}
	.st1{fill:#BCBEC0;}
</style>
<title>Asset 1</title>
<g id="BG_Illustration">
	<g id="Clouds">
		<path class="st0" d="M2461.6,454.1c-0.2-54.2-59-49-66.1-6.4c-20.9-17.2-43-6.9-41.6,21.1h158.7
			C2512.6,436.4,2474.5,437.6,2461.6,454.1z"/>
		<path class="st0" d="M2338,468.8h-40.6C2294.7,441.7,2333.5,443.6,2338,468.8z"/>
		<path class="st1" d="M2531.1,471.6c-1.5-0.1-2.7-1.4-2.6-2.9c0.1-1.4,1.2-2.5,2.6-2.6h63.2c1.5,0.1,2.7,1.4,2.6,2.9
			c-0.1,1.4-1.2,2.5-2.6,2.6H2531.1z M2393.7,443c3.6-13.9,12.7-23.5,23.1-28.1c5.1-2.2,10.6-3.2,16.1-2.9
			c5.5,0.3,10.8,2.1,15.4,5.2c8.2,5.6,14.4,15.6,15.8,30.7c4.2-3.3,9.1-5.6,14.3-6.8h0.1c5.6-1.4,11.5-1.4,17.1,0
			c5.7,1.4,10.8,4.7,14.3,9.4c3.3,4.5,5.4,10.6,5.4,18.3c0,1.5-1.2,2.7-2.7,2.7l0,0h-158.7c-1.5,0-2.7-1.2-2.7-2.7l0,0v-0.1
			c-0.5-10.4,2.1-18.5,6.7-24c4-4.9,9.9-7.9,16.2-8.1C2380.1,436.3,2386.9,438.4,2393.7,443L2393.7,443z M2419,419.9
			c-9.9,4.3-18.4,14.1-20.8,28.3l0,0c-0.2,1.5-1.6,2.5-3.1,2.3c-0.5-0.1-0.9-0.3-1.3-0.6c-6.8-5.6-13.6-8-19.5-7.8
			c-2.4,0.1-4.7,0.7-6.8,1.7c-2.1,1.1-4,2.6-5.4,4.4c-3.4,4.1-5.4,10.1-5.5,17.9h153.2c-0.2-4.4-1.7-8.7-4.2-12.4
			c-2.8-3.7-6.8-6.3-11.3-7.4c-4.8-1.2-9.7-1.2-14.5,0h-0.1c-6.4,1.5-12.2,4.8-15.8,9.4l0,0c-0.9,1.2-2.6,1.4-3.8,0.5
			c-0.7-0.5-1.1-1.3-1.1-2.2c-0.1-16.5-5.8-27.1-13.7-32.5c-3.8-2.5-8.1-4-12.7-4.2C2427.9,417.1,2423.3,418,2419,419.9L2419,419.9z
			 M2338,471.6h-40.6c-1.5,0-2.7-1.2-2.7-2.7c-0.9-9.4,2.7-15.8,8.3-19.3c2.8-1.7,5.9-2.7,9.2-3c13.7-1.2,26,8.3,28.5,21.8
			c0.3,1.5-0.7,2.9-2.2,3.2l0,0C2338.4,471.5,2338.2,471.6,2338,471.6L2338,471.6z M2300,466.1h34.4c-3.2-9.1-12.2-14.9-21.8-14.1
			c-2.4,0.2-4.7,0.9-6.8,2.2C2302.4,456.4,2300.1,460.3,2300,466.1L2300,466.1z"/>
		<path class="st0" d="M785.3,316.9c10.5-44.9,64.1-37.7,66.2,6.4c12.9-16.5,41.8-17,47,14.7H743.3
			C741.9,309.9,764.4,299.7,785.3,316.9z"/>
		<path class="st1" d="M898.4,340.7c0.1,0,0.3,0,0.4,0c1.5-0.2,2.5-1.6,2.3-3.1c-1.8-10.9-6.3-18.3-12-22.8
			c-2.9-2.3-6.2-3.9-9.8-4.7c-3.4-0.8-7-0.9-10.5-0.3c-5.7,1-11,3.5-15.4,7.3c-2-12.5-8.2-21.7-16.1-27.3c-4.8-3.3-10.3-5.4-16.1-6
			s-11.6,0.4-16.8,2.8c-9,4.1-16.8,12.5-20.8,25.5c-6.8-4.7-13.8-6.8-20.1-6.5c-6.4,0.2-12.4,3.2-16.4,8.2
			c-4.5,5.5-7.1,13.6-6.7,23.9v0.1c0,1.5,1.2,2.7,2.7,2.7L898.4,340.7z M745.9,335.2c0.1-7.7,2.1-13.7,5.5-17.8
			c1.5-1.9,3.4-3.4,5.6-4.5c2.2-1.1,4.5-1.7,6.9-1.8c6-0.3,12.9,2.2,19.7,7.8c1.2,1,2.9,0.8,3.8-0.4l0,0c0.3-0.3,0.5-0.7,0.5-1.1
			l0,0c3.2-13.5,10.4-22,18.9-25.8c4.4-2,9.2-2.8,14-2.3s9.5,2.2,13.5,5c7.9,5.5,13.8,15.4,14.4,29c0.1,1.5,1.4,2.7,2.9,2.6
			c0.8,0,1.6-0.4,2.1-1.1c4-5.1,9.8-8.6,16.2-9.7c2.8-0.5,5.6-0.4,8.4,0.2c2.8,0.6,5.4,1.9,7.6,3.6c4.2,3.3,7.5,8.5,9.3,16.2
			L745.9,335.2z"/>
	</g>
</g>
<path class="st1" d="M649.7,340.7c-1.5-0.1-2.7-1.4-2.6-2.9c0.1-1.4,1.2-2.5,5-2.6h63.2c-0.9,0.1,0.3,1.4,0.2,2.9
	c-0.1,1.4-1.2,2.5-2.6,2.6H649.7z"/>
</svg>
