<?xml version="1.0" encoding="utf-8"?>
<!-- Generator: Adobe Illustrator 19.0.1, SVG Export Plug-In . SVG Version: 6.00 Build 0)  -->
<svg version="1.1" width="678" height="408" id="Слой_1" xmlns="http://www.w3.org/2000/svg" xmlns:xlink="http://www.w3.org/1999/xlink" x="0px" y="0px"
	 viewBox="0 0 677.6 407.5" style="enable-background:new 0 0 677.6 407.5;" xml:space="preserve">
<style type="text/css">
	.st0{fill-rule:evenodd;clip-rule:evenodd;fill:#FFFFFF;}
	.st1{fill:#BDBEC0;}
	.grey-house:hover .st1 { fill:#F15C2C; transition: .5s}
	.st2{fill:#F15C2C; transition: .5s}
	.orange-house:hover .st2{fill:#BDBEC0;}
</style>
<g class="grey-house">
	<path class="st0" d="M404.1,199.9v96.6H386v68.8h3.7v37.2H27.9v-37.2h3.7V258.7l-21.2,16c-0.9,0.7-2.1,0.5-2.8-0.4l-4.8-6.4
		c-0.7-0.9-0.5-2.1,0.4-2.8l133.1-100.3l46.6,35.1h34.5v-11.6h3.2v-22.6h-3.2v-9.2h3.2v-9.2H241v9.2h3.2v9.2H241v22.6h3.2v11.6
		H404.1L404.1,199.9z"/>
	<path class="st1" d="M108.8,384v6.9H86.5V384H108.8L108.8,384z M185.5,362.8V287h29.2v75.8H185.5L185.5,362.8z M207.3,354
		c1.4,0,2.5-1.1,2.5-2.5v-55c0-1.4-1.1-2.5-2.5-2.5h-14.4c-1.4,0-2.5,1.1-2.5,2.5v55c0,1.4,1.1,2.5,2.5,2.5H207.3L207.3,354z
		 M199.8,349.1h-4.4v-37.4c1.5-0.6,2.9-1.2,4.4-1.7V349.1L199.8,349.1z M219.6,362.8v-78.3c0-1.4-1.1-2.5-2.5-2.5H183
		c-1.4,0-2.5,1.1-2.5,2.5v78.3h-5.4v-84.2c3.3-2.9,7.1-5.1,11.1-6.6c4.4-1.7,9-2.6,13.8-2.6c4.8,0,9.5,0.9,13.8,2.6
		c4,1.5,7.8,3.8,11.1,6.6v84.2H219.6L219.6,362.8z M79.6,372.1c-1.4,0-2.5,1.1-2.5,2.5v18.8c0,1.4,1.1,2.5,2.5,2.5h31.7
		c1.4,0,2.5-1.1,2.5-2.5v-18.8c0-1.4-1.1-2.5-2.5-2.5H79.6L79.6,372.1z M228.8,372.1h-57.4v-4.4h1.2H183h34.1h10.4h1.2V372.1
		L228.8,372.1z M228.8,381.4h-57.4v-4.4h57.4V381.4L228.8,381.4z M228.8,390.9h-57.4v-4.6h57.4V390.9L228.8,390.9z M77.1,349.1H72
		v-62.2h5.1V349.1L77.1,349.1z M113.7,286.9h9.5v62.2h-9.5V286.9L113.7,286.9z M108.8,349.1H82v-62.2h26.7V349.1L108.8,349.1z
		 M65.1,275c-1.4,0-2.5,1.1-2.5,2.5v74.1c0,1.4,1.1,2.5,2.5,2.5h14.4h31.7h14.4c1.4,0,2.5-1.1,2.5-2.5v-74.1c0-1.4-1.1-2.5-2.5-2.5
		h-14.4H79.6H65.1L65.1,275z M136.2,202c-5.6,0-10.7,2.3-14.4,6c-3.7,3.7-6,8.8-6,14.4c0,5.6,2.3,10.7,6,14.4c3.7,3.7,8.8,6,14.4,6
		c5.6,0,10.7-2.3,14.4-6c3.7-3.7,6-8.8,6-14.4c0-5.6-2.3-10.7-6-14.4C147,204.3,141.9,202,136.2,202L136.2,202z M156.7,263.6v99.2
		h-1.2H34.1V259.9l102.2-77l49.7,37.4l-56.8,42.8c-1,0.7-1.6,1.8-1.7,2.9c-0.2,1.1,0.1,2.3,0.9,3.3l4.8,6.4c0.7,1,1.8,1.6,2.9,1.7
		c1.1,0.2,2.3-0.1,3.3-0.9L156.7,263.6L156.7,263.6z M241.9,256.2l-40.3-30.4c-0.9-0.7-2.2-0.6-3,0l-40.8,30.7
		c-0.1,0.1-0.1,0.1-0.2,0.2l-20.7,15.6l-4.3-5.6l59-44.5l0.1,0l8.5-6.4l67.5,50.9l-4.3,5.6L243,257.1
		C242.7,256.7,242.3,256.4,241.9,256.2L241.9,256.2z M229.1,275.6c-4-3.5-8.5-6.3-13.4-8.2c-4.9-1.9-10.2-2.9-15.6-2.9
		c-5.3,0-10.6,1-15.6,2.9c-4.9,1.9-9.5,4.6-13.4,8.2c-0.6,0.5-0.9,1.1-0.9,1.9v85.3h-1.2h-7.3V259.9l38.5-29l38.5,29v24.6v12v66.3
		h-7.3H230v-85.3C230,276.7,229.6,276,229.1,275.6L229.1,275.6z M360.7,342.2h-94.4v-24h94.4V342.2L360.7,342.2z M360.7,371.1h-94.4
		v-5.8v-18.2h94.4v18.2V371.1L360.7,371.1z M401.6,287v7.1H386H243.5V287H401.6L401.6,287z M383.5,299v63.8h-17.8v-18.2v-28.9
		c0-1.4-1.1-2.5-2.5-2.5h-99.4c-1.4,0-2.5,1.1-2.5,2.5v28.9v18.2h-16.6h-1.2V299H383.5L383.5,299z M219.9,163.2v-4.3h0.7H241h0.7
		v4.3H241h-20.4H219.9L219.9,163.2z M238.6,154h-15.4v-4.3h15.4V154L238.6,154z M241.7,190.8v9.1v11.3h-21.8v-11.3v-9.1h0.7H241
		H241.7L241.7,190.8z M238.6,185.8h-15.4v-17.7h15.4V185.8L238.6,185.8z M181.6,202l14.4,10.9l-5.9,4.4l-52.3-39.4
		c-0.9-0.7-2.2-0.6-3,0L30.3,256.6c-0.1,0-0.1,0.1-0.2,0.2L9.4,272.4l-4.3-5.6l131.2-98.9l45,33.9
		C181.4,201.8,181.5,201.9,181.6,202L181.6,202z M190.3,202.4H215v11.3c0,1.4,1.1,2.5,2.5,2.5h26.7c1.4,0,2.5-1.1,2.5-2.5v-11.3h155
		v79.7H243.5v-18.4l17.2,13c1,0.7,2.2,1,3.3,0.9c1.1-0.2,2.2-0.7,2.9-1.7l4.8-6.4l0,0l0,0c0.7-1,1-2.2,0.9-3.3
		c-0.2-1.1-0.7-2.2-1.7-2.9l-69.3-52.2l0,0l0,0L190.3,202.4L190.3,202.4z M122.1,228.6c1.1-8.9,8.6-15.7,17.8-15.7
		c4,0,7.6,1.3,10.6,3.5l0,0c0.8,1.8,1.2,3.9,1.2,6c0,4.3-1.7,8.1-4.5,10.9c-2.8,2.8-6.7,4.5-10.9,4.5s-8.1-1.7-10.9-4.5
		C124,232,122.9,230.4,122.1,228.6L122.1,228.6L122.1,228.6z M30.4,402.5v-34.7h1.2h121.3v34.7c0,1.4,1.1,2.5,2.5,2.5
		c1.4,0,2.5-1.1,2.5-2.5v-34.7h1.2h7.3v6.8v9.3v9.5v9.1c0,1.4,1.1,2.5,2.5,2.5c1.4,0,2.5-1.1,2.5-2.5v-6.6h57.4v6.6
		c0,1.4,1.1,2.5,2.5,2.5c1.4,0,2.5-1.1,2.5-2.5v-9.1v-9.5v-9.3v-6.8h7.3h1.2v34.7c0,1.4,1.1,2.5,2.5,2.5c1.4,0,2.5-1.1,2.5-2.5
		v-34.7h14.1v5.8v28.9c0,1.4,1.1,2.5,2.5,2.5c1.4,0,2.5-1.1,2.5-2.5V376h94.4v26.4c0,1.4,1.1,2.5,2.5,2.5c1.4,0,2.5-1.1,2.5-2.5
		v-28.9v-5.8H386h1.2v34.7c0,1.4,1.1,2.5,2.5,2.5c1.4,0,2.5-1.1,2.5-2.5v-37.2c0-1.4-1.1-2.5-2.5-2.5h-1.2V299h15.6
		c1.4,0,2.5-1.1,2.5-2.5v-12v-84.6c0-1.4-1.1-2.5-2.5-2.5H246.7v-9.1c0-1.4-1.1-2.5-2.5-2.5h-0.7v-17.7h0.7c1.4,0,2.5-1.1,2.5-2.5
		v-9.2c0-1.4-1.1-2.5-2.5-2.5h-0.7v-6.7c0-1.4-1.1-2.5-2.5-2.5h-20.4c-1.4,0-2.5,1.1-2.5,2.5v6.7h-0.7c-1.4,0-2.5,1.1-2.5,2.5v9.2
		c0,1.4,1.1,2.5,2.5,2.5h0.7v17.7h-0.7c-1.4,0-2.5,1.1-2.5,2.5v9.1h-31.2l-45.9-34.6c-0.9-0.7-2.1-0.7-3,0L1.8,263.1
		c-1,0.7-1.6,1.8-1.7,2.9c-0.2,1.1,0.1,2.3,0.9,3.3l4.8,6.4c0.7,1,1.8,1.6,2.9,1.7c1.1,0.2,2.3-0.1,3.3-0.9l17.2-13v99.2h-1.2
		c-1.4,0-2.5,1.1-2.5,2.5v37.2c0,1.4,1.1,2.5,2.5,2.5C29.3,404.9,30.4,403.8,30.4,402.5L30.4,402.5z M202,211.3
		c-0.1-0.2-0.3-0.3-0.4-0.5L202,211.3L202,211.3z M138.3,163.3c-0.1-0.2-0.3-0.3-0.4-0.5L138.3,163.3L138.3,163.3z"/>
</g>
<g class="orange-house">
	<polygon class="st0" points="652.5,17.5 652.5,2.5 670.8,2.5 670.8,82.2 670.8,97.2 675.1,97.2 675.1,109.8 670.8,109.8 
		670.8,288.7 675.1,288.7 675.1,301.3 670.8,301.3 670.8,407.5 457.2,407.5 457.2,301.3 452.9,301.3 452.9,288.7 457.2,288.7 
		457.2,109.8 452.9,109.8 452.9,97.2 457.2,97.2 457.2,82.2 457.2,2.5 475.5,2.5 475.5,17.5 652.5,17.5 	"/>
	<path class="st2" d="M557.5,351.5h17.8v-21.1h-17.8V351.5L557.5,351.5z M575.3,356.4h-17.8v14.8h17.8V356.4L575.3,356.4z
		 M577.8,376.1h-27.5c-1.4,0-2.5-1.1-2.5-2.5V354v-33.4c0-1.4,1.1-2.5,2.5-2.5h27.5c1.4,0,2.5,1.1,2.5,2.5V354v19.7
		C580.2,375,579.1,376.1,577.8,376.1L577.8,376.1z M495.4,351.5h17.8v-21.1h-17.8V351.5L495.4,351.5z M513.2,356.4h-17.8v14.8h17.8
		V356.4L513.2,356.4z M515.6,376.1h-27.5c-1.4,0-2.5-1.1-2.5-2.5V354v-33.4c0-1.4,1.1-2.5,2.5-2.5h27.5c1.4,0,2.5,1.1,2.5,2.5V354
		v19.7C518.1,375,517,376.1,515.6,376.1L515.6,376.1z"/>
	<g>
		<path class="st2" d="M639.9,318h-27.5c-1.4,0-2.5,1.1-2.5,2.5v57.8v20.2v9h4.9v-6.6h22.6v6.6h4.9v-9v-20.2v-57.8
			C642.3,319.1,641.2,318,639.9,318z M637.4,395.9h-17.8v-15.2h17.8V395.9z M637.4,375.8h-17.8v-45.5h17.8V375.8z"/>
		<path class="st2" d="M544.6,225.5c0.2,1.2,1.2,2.1,2.4,2.1v0h0.7v30.9v19.7c0,1.4,1.1,2.5,2.5,2.5h27.5c1.4,0,2.5-1.1,2.5-2.5
			v-19.7v-30.9h0.7v0c1.2,0,2.3-0.9,2.4-2.1l1.7-11.5c0-0.2,0-0.3,0-0.5c0-1.4-1.1-2.5-2.5-2.5h-10.5v-1.5c0-1.4-1.1-2.5-2.5-2.5
			H559c-1.4,0-2.5,1.1-2.5,2.5v1.5h-11.1c-1.4,0-2.5,1.1-2.5,2.5c0,0.2,0,0.3,0,0.5L544.6,225.5z M575.3,275.9h-17.8v-14.8h17.8
			V275.9z M575.3,256.1h-17.8V235h17.8V256.1z M559,216.1c1.4,0,2.5-1.1,2.5-2.5v-1.5h5.7v1.5c0,1.4,1.1,2.5,2.5,2.5h10.1l-1,6.6
			h-1.1h-27.5h-1.1l-1-6.6H559z"/>
		<path class="st2" d="M550.2,185.5h27.5c1.4,0,2.5-1.1,2.5-2.5v-19.7v-33.4c0-1.4-1.1-2.5-2.5-2.5h-27.5c-1.4,0-2.5,1.1-2.5,2.5
			v33.4v19.7C547.8,184.4,548.9,185.5,550.2,185.5z M557.5,139.8h17.8v21.1h-17.8V139.8z M557.5,165.8h17.8v14.8h-17.8V165.8z"/>
		<path class="st2" d="M488.1,185.5h27.5c1.4,0,2.5-1.1,2.5-2.5v-19.7v-33.4c0-1.4-1.1-2.5-2.5-2.5h-27.5c-1.4,0-2.5,1.1-2.5,2.5
			v33.4v19.7C485.7,184.4,486.8,185.5,488.1,185.5z M495.4,139.8h17.8v21.1h-17.8V139.8z M495.4,165.8h17.8v14.8h-17.8V165.8z"/>
		<path class="st2" d="M612.4,185.5h27.5c1.4,0,2.5-1.1,2.5-2.5v-19.7v-33.4c0-1.4-1.1-2.5-2.5-2.5h-27.5c-1.4,0-2.5,1.1-2.5,2.5
			v33.4v19.7C609.9,184.4,611,185.5,612.4,185.5z M619.6,139.8h17.8v21.1h-17.8V139.8z M619.6,165.8h17.8v14.8h-17.8V165.8z"/>
		<path class="st2" d="M482.5,225.5c0.2,1.2,1.2,2.1,2.4,2.1v0h0.7v30.9v19.7c0,1.4,1.1,2.5,2.5,2.5h27.5c1.4,0,2.5-1.1,2.5-2.5
			v-19.7v-30.9h0.7v0c1.2,0,2.3-0.9,2.4-2.1l1.7-11.5c0-0.2,0-0.3,0-0.5c0-1.4-1.1-2.5-2.5-2.5h-11.1v-1.5c0-1.4-1.1-2.5-2.5-2.5
			h-10.1c-1.4,0-2.5,1.1-2.5,2.5v1.5h-11.1c-1.4,0-2.5,1.1-2.5,2.5c0,0.2,0,0.3,0,0.5L482.5,225.5z M513.2,275.9h-17.8v-14.8h17.8
			V275.9z M513.2,256.1h-17.8V235h17.8V256.1z M496.8,216.1c1.4,0,2.5-1.1,2.5-2.5v-1.5h5.1v1.5c0,1.4,1.1,2.5,2.5,2.5h10.7l-1,6.6
			h-1.1h-27.5h-1.1l-1-6.6H496.8z"/>
		<path class="st2" d="M452.9,303.7h1.9v103.7h4.9V303.7h208.6v103.7h4.9V303.7h1.9c1.4,0,2.5-1.1,2.5-2.5v-12.6
			c0-1.4-1.1-2.5-2.5-2.5h-1.9v-168l0,0l0,0v-5.9h1.9c1.4,0,2.5-1.1,2.5-2.5V97.2c0-1.4-1.1-2.5-2.5-2.5h-1.9V82.2V2.5
			c0-1.4-1.1-2.5-2.5-2.5h-18.3c-1.4,0-2.5,1.1-2.5,2.5V15H477.9V2.5c0-1.4-1.1-2.5-2.5-2.5h-18.3c-1.4,0-2.5,1.1-2.5,2.5v79.7v12.5
			h-1.9c-1.4,0-2.5,1.1-2.5,2.5v12.6c0,1.4,1.1,2.5,2.5,2.5h1.9v5.9v168h-1.9c-1.4,0-2.5,1.1-2.5,2.5v12.6
			C450.4,302.6,451.5,303.7,452.9,303.7z M655,17.5V4.9h13.3v74.8H655V17.5z M655,84.7h13.3v10.1H655V84.7z M477.9,82.2V19.9h172.1
			v62.2v12.5h-35.2V82.2h0c0-0.9-0.5-1.8-1.5-2.2L565,58.1l0,0l0,0c-0.6-0.3-1.4-0.3-2,0l-48.2,21.8c-0.9,0.4-1.6,1.3-1.6,2.3v12.5
			h-35.2V82.2z M609.9,83.8v10.9h-91.8V83.8L564,63.1L609.9,83.8z M459.7,4.9H473v12.5v62.2h-13.3V4.9z M459.7,84.7H473v10.1h-13.3
			V84.7z M455.3,99.7h1.9h18.3h40.2h96.7h40.2h18.3h1.9v7.7h-1.9H457.2h-1.9V99.7z M459.7,115.7v-3.4h208.6v3.4H459.7z M668.3,120.6
			v165.6H459.7V120.6H668.3z M455.3,291.1h1.9h213.6h1.9v7.7h-1.9H457.2h-1.9V291.1z"/>
		<path class="st2" d="M606.7,225.5c0.2,1.2,1.2,2.1,2.4,2.1v0h0.7v30.9v19.7c0,1.4,1.1,2.5,2.5,2.5h27.5c1.4,0,2.5-1.1,2.5-2.5
			v-19.7v-30.9h0.7v0c1.2,0,2.3-0.9,2.4-2.1l1.7-11.5c0-0.2,0-0.3,0-0.5c0-1.4-1.1-2.5-2.5-2.5h-11.1v-1.5c0-1.4-1.1-2.5-2.5-2.5
			h-10.1c-1.4,0-2.5,1.1-2.5,2.5v1.5h-11.1c-1.4,0-2.5,1.1-2.5,2.5c0,0.2,0,0.3,0,0.5L606.7,225.5z M637.4,275.9h-17.8v-14.8h17.8
			V275.9z M637.4,256.1h-17.8V235h17.8V256.1z M621.1,216.1c1.4,0,2.5-1.1,2.5-2.5v-1.5h5.1v1.5c0,1.4,1.1,2.5,2.5,2.5h10.7l-1,6.6
			h-1.1h-27.5h-1.1l-1-6.6H621.1z"/>
	</g>
</g>
</svg>
