<svg xmlns="http://www.w3.org/2000/svg" viewBox="0 0 406.55 260.17"><defs><style>.cls-1{fill:#fff;fill-rule:evenodd;}.cls-2{fill:#bcbec0;}</style></defs><title>Asset 2</title><g id="Layer_2" data-name="Layer 2"><g id="What_We_Offer_Panel" data-name="What We Offer Panel"><g id="House_Illustration" data-name="House Illustration"><path class="cls-1" d="M404.08,55.12v96.63H386v68.77h3.72V257.7H28V220.52h3.71V113.92l-21.18,16a2,2,0,0,1-2.8-.39L2.86,123.1a2,2,0,0,1,.4-2.8L136.34,20l46.6,35.11h34.53V43.52h3.17V20.89h-3.17V11.68h3.17V2.47H241v9.21h3.17v9.21H241V43.52h3.17v11.6Z"/><path class="cls-2" d="M108.76,239.22v6.94H86.48v-6.94Zm76.74-21.17V142.23h29.15v75.82Zm21.8-8.8a2.48,2.48,0,0,0,2.47-2.47v-55a2.47,2.47,0,0,0-2.47-2.46H192.86a2.46,2.46,0,0,0-2.47,2.46v55a2.47,2.47,0,0,0,2.47,2.47Zm-7.53-4.94h-4.45V166.89a44.41,44.41,0,0,1,4.45-1.67v39.09Zm19.82,13.74V139.76a2.46,2.46,0,0,0-2.47-2.47H183a2.47,2.47,0,0,0-2.47,2.47v78.29h-5.44V133.84a38.45,38.45,0,0,1,49.91,0v84.21Zm-140,9.3a2.47,2.47,0,0,0-2.47,2.47v18.81a2.47,2.47,0,0,0,2.47,2.46h31.67a2.47,2.47,0,0,0,2.47-2.46V229.82a2.47,2.47,0,0,0-2.47-2.47Zm149.19,0H171.4V223h57.35v4.36Zm0,9.29H171.4v-4.36h57.35v4.36Zm0,9.52H171.4v-4.58h57.35v4.58ZM77.1,204.31H72V142.13H77.1v62.18Zm36.6-62.18h9.5v62.18h-9.5V142.13Zm-4.94,62.18H82V142.13h26.73v62.18ZM65.12,130.26a2.48,2.48,0,0,0-2.47,2.47v74.05a2.48,2.48,0,0,0,2.47,2.47h60.55a2.47,2.47,0,0,0,2.47-2.47V132.73a2.47,2.47,0,0,0-2.47-2.47H65.12Zm71.12-73a20.38,20.38,0,1,0,14.42,6,20.32,20.32,0,0,0-14.42-6Zm20.42,61.65v99.19H34.13V115.14l102.21-77L186,75.55l-56.77,42.78a4.49,4.49,0,0,0-.88,6.26l4.81,6.38a4.49,4.49,0,0,0,6.26.88l17.23-13Zm85.21-7.4L201.56,81.09a2.48,2.48,0,0,0-3,0l-40.79,30.74-.22.17-20.71,15.6L132.58,122l59-44.45.05,0,8.46-6.38L267.58,122l-4.26,5.64L243,112.34a2.45,2.45,0,0,0-1.15-.88Zm-12.82,19.35a43.44,43.44,0,0,0-58,0,2.45,2.45,0,0,0-.92,1.92v85.32H161.6V115.14l38.48-29,38.48,29V218.05H230V132.73a2.45,2.45,0,0,0-.92-1.92ZM360.71,197.4H266.28v-24h94.43v24Zm0,28.92H266.28v-24h94.43v24Zm40.9-84.09v7.06H243.49v-7.06Zm-18.12,12v63.83H365.65V171a2.47,2.47,0,0,0-2.47-2.47H263.81a2.47,2.47,0,0,0-2.47,2.47v47.1H243.49V154.22ZM219.94,18.42V14.15h21.78v4.27H219.94Zm18.62-9.21H223.11V4.94h15.45V9.21ZM241.72,46V66.45H219.94V46h21.78Zm-3.16-4.94H223.11V23.36h15.45V41.05Zm-57,16.12L196,68l-5.87,4.42L137.83,33.07a2.46,2.46,0,0,0-3,0L30.29,111.87l-.21.15L9.37,127.63,5.11,122,136.34,23.1l45,33.91.22.16Zm8.74.42H215V68.91a2.46,2.46,0,0,0,2.46,2.47h26.72a2.47,2.47,0,0,0,2.47-2.47V57.59h155v79.7H243.49V118.86l17.24,13A4.48,4.48,0,0,0,267,131l4.81-6.38h0a4.46,4.46,0,0,0-.87-6.25L201.6,66.1l0,0h0l-11.24-8.47ZM122.1,83.82a17.92,17.92,0,0,1,28.38-12.23h0A15.45,15.45,0,0,1,122.1,83.82ZM30.42,257.7V223H152.94V257.7a2.47,2.47,0,0,0,4.94,0V223h8.58V257.7a2.47,2.47,0,0,0,4.94,0v-6.6h57.35v6.6a2.47,2.47,0,0,0,4.94,0V223h8.58V257.7a2.47,2.47,0,0,0,4.94,0V223h14.13V257.7a2.47,2.47,0,0,0,4.94,0V231.25h94.43V257.7a2.47,2.47,0,0,0,4.94,0V223h21.56V257.7a2.47,2.47,0,0,0,4.94,0V220.52a2.48,2.48,0,0,0-2.47-2.47h-1.25V154.22h15.65a2.47,2.47,0,0,0,2.47-2.47V55.12a2.47,2.47,0,0,0-2.47-2.46H246.66V43.52a2.48,2.48,0,0,0-2.47-2.47h-.7V23.36h.7a2.48,2.48,0,0,0,2.47-2.47V11.68a2.48,2.48,0,0,0-2.47-2.47h-.7V2.47A2.47,2.47,0,0,0,241,0H220.64a2.48,2.48,0,0,0-2.47,2.47V9.21h-.7A2.47,2.47,0,0,0,215,11.68v9.21a2.47,2.47,0,0,0,2.46,2.47h.7V41.05h-.7A2.47,2.47,0,0,0,215,43.52v9.14H183.76L137.87,18.07a2.48,2.48,0,0,0-3,0L1.77,118.33a4.47,4.47,0,0,0-.87,6.26L5.71,131a4.48,4.48,0,0,0,6.25.88l17.24-13v99.19H28a2.47,2.47,0,0,0-2.47,2.47V257.7a2.47,2.47,0,0,0,4.94,0ZM202,66.55a2.68,2.68,0,0,0-.44-.45l.44.45Zm-63.73-48a2.41,2.41,0,0,0-.44-.46l.44.46Z"/></g></g></g></svg>