<?xml version="1.0" encoding="utf-8"?>
<!-- Generator: Adobe Illustrator 19.0.1, SVG Export Plug-In . SVG Version: 6.00 Build 0)  -->
<svg version="1.1" id="Слой_1" xmlns="http://www.w3.org/2000/svg" xmlns:xlink="http://www.w3.org/1999/xlink" x="0px" y="0px"
	 viewBox="662 28.9 1920 785" style="enable-background:new 662 28.9 1920 785;" xml:space="preserve">
<style type="text/css">
	.st0{fill:#BCBEC0;}
	.st1{fill:#FFFFFF;}
</style>
<g id="Layer_2">
	<g id="What_We_Offer_Panel">
		<g id="BG_Illustration">
			<g id="Clouds">
				<path class="st0" d="M1912.9,274.2h-28.7c-1.3,0-2.4-0.9-2.7-2.2c-2-6.7-5.8-11.4-10.4-14.1c-3.2-1.9-7-2.9-10.7-2.9
					c-3.7,0.1-7.3,1.2-10.4,3.2c-3.8,2.5-6.6,6.2-8.2,10.4h18c1.5,0.1,2.7,1.4,2.6,2.9c-0.1,1.4-1.2,2.5-2.6,2.6h-111.4
					c-1.5,0.1-2.8-1.1-2.9-2.6c-0.1-1.5,1.1-2.8,2.6-2.9c0.1,0,0.2,0,0.3,0h87.6c1.8-6.1,5.7-11.4,11-15c4-2.6,8.6-4,13.4-4.1
					c4.8-0.1,9.5,1.2,13.6,3.6c5.8,3.6,10.2,9,12.3,15.5h26.7c1.5,0.1,2.7,1.4,2.6,2.9C1915.5,273,1914.3,274.1,1912.9,274.2
					L1912.9,274.2z M1728.4,274.2h-20c-1.5-0.1-2.7-1.4-2.6-2.9c0.1-1.4,1.2-2.5,2.6-2.6h20c1.5-0.1,2.8,1.1,2.9,2.6
					c0.1,1.5-1.1,2.8-2.6,2.9C1728.6,274.2,1728.5,274.2,1728.4,274.2z"/>
				<path class="st0" d="M1569,388.9c-1.5-0.1-2.7-1.4-2.6-2.9c0.1-1.4,1.2-2.5,2.6-2.6h81.7c1.5,0.1,2.7,1.4,2.6,2.9
					c-0.1,1.4-1.2,2.5-2.6,2.6H1569z M1420.6,366.1c-1.5-0.1-2.7-1.4-2.6-2.9c0.1-1.4,1.2-2.5,2.6-2.6h36.3
					c2.8-8.2,7.8-14,13.6-17.5c4.4-2.7,9.5-4.1,14.6-4c5.1,0.1,10.1,1.6,14.4,4.4c6,4.1,10.3,10.1,12.2,17.1h8.5
					c1.5,0.1,2.7,1.4,2.6,2.9c-0.1,1.4-1.2,2.5-2.6,2.6h-28.6c-1.5,0.1-2.8-1.1-2.9-2.6c-0.1-1.5,1.1-2.8,2.6-2.9c0.1,0,0.2,0,0.3,0
					h14.4c-1.7-5.1-5-9.5-9.5-12.5c-3.4-2.3-7.4-3.5-11.5-3.5c-4.1-0.1-8.2,1.1-11.7,3.2c-5.2,3.1-9.5,8.5-11.7,16.3
					c-0.3,1.2-1.4,2.1-2.7,2.1L1420.6,366.1z M1538.4,366.1c-1.5,0.1-2.8-1.1-2.9-2.6s1.1-2.8,2.6-2.9c0.1,0,0.2,0,0.3,0h60.1
					c1.5-0.1,2.8,1.1,2.9,2.6s-1.1,2.8-2.6,2.9c-0.1,0-0.2,0-0.3,0H1538.4z"/>
				<path class="st1" d="M922.6,372.3h50.7C965.1,343.4,929.6,343.7,922.6,372.3z"/>
				<path class="st0" d="M863.1,392.4h-81.7c-1.5,0-2.7,1.2-2.7,2.7c0,1.5,1.2,2.7,2.7,2.7h81.7c1.5,0,2.7-1.2,2.7-2.7
					C865.9,393.6,864.7,392.4,863.1,392.4z"/>
				<path class="st0" d="M763.2,392.4h-20.5c-1.5,0-2.7,1.2-2.7,2.7c0,1.5,1.2,2.7,2.7,2.7h20.5c1.5,0,2.7-1.2,2.7-2.7
					C765.9,393.6,764.7,392.4,763.2,392.4z"/>
				<path class="st0" d="M893.8,369.5h-60.1c-1.5,0.1-2.7,1.4-2.6,2.9c0.1,1.4,1.2,2.5,2.6,2.6h60.1c1.5-0.1,2.7-1.4,2.6-2.9
					C896.3,370.7,895.1,369.6,893.8,369.5z"/>
				<path class="st0" d="M1011.6,369.5h-36.3c-2.8-8.2-7.7-14-13.6-17.5c-4.4-2.7-9.5-4.1-14.6-4c-5.1,0.1-10.1,1.6-14.4,4.4
					c-6,4.1-10.3,10.1-12.2,17.1h-8.5c-1.5,0.1-2.7,1.4-2.6,2.9c0.1,1.4,1.2,2.5,2.6,2.6h28.6c1.5-0.1,2.7-1.4,2.6-2.9
					c-0.1-1.4-1.2-2.5-2.6-2.6h-14.4c1.7-5.1,5-9.5,9.5-12.5c3.4-2.3,7.4-3.5,11.5-3.5c4.1,0,8.2,1.1,11.8,3.2
					c5.2,3.1,9.5,8.5,11.7,16.3c0.3,1.2,1.4,2.1,2.7,2.1h38.3c1.5-0.1,2.7-1.4,2.6-2.9C1014.2,370.7,1013,369.6,1011.6,369.5
					L1011.6,369.5z"/>
			</g>
		</g>
	</g>
</g>
</svg>
