<?xml version="1.0" encoding="utf-8"?>
<!-- Generator: Adobe Illustrator 19.0.1, SVG Export Plug-In . SVG Version: 6.00 Build 0)  -->
<svg version="1.1" width="1920" height="700" id="Слой_1" xmlns="http://www.w3.org/2000/svg" xmlns:xlink="http://www.w3.org/1999/xlink" x="0px" y="0px"
	 viewBox="1316 32.9 1920 698.6" style="enable-background:new 1316 32.9 1920 698.6;" xml:space="preserve">
<style type="text/css">
	.st0{fill:#EFEFEF;}
	.st1{fill:#BCBEC0;}
	.st2{fill:#DDDDDD;}
	.st3{fill:#FFFFFF;}
</style>
<title>Asset 1</title>
<g id="Layer_2">
	<g id="What_We_Offer_Panel">
		<g id="BG">
			<polygon id="Gray_Box" class="st0" points="1316,32.9 3236,32.9 3236,727.9 1316,727.9 			"/>
			<polygon id="Ground" class="st1" points="3017.2,725.9 2945.8,725.9 1542.4,725.9 1542.4,725.9 1316,725.9 1316,731.4 
				1542.4,731.4 1580.3,731.4 2945.8,731.4 3017.2,731.4 3236,731.4 3236,725.9 			"/>
		</g>
		<g id="BG_Illustration">
			<g id="Trees_bench">
				<path class="st1" d="M2854.2,728.9c-0.1,1.5-1.4,2.7-2.9,2.6c-1.4-0.1-2.5-1.2-2.6-2.6v-15h-52v15c-0.1,1.5-1.4,2.7-2.9,2.6
					c-1.4-0.1-2.5-1.2-2.6-2.6v-15h-7.5v-5.5h7.5v-4.5h-7.5v-5.5h7.5v-4.5h-7.5v-5.5h77.9v5.5h-7.5v4.5h7.5v5.5h-7.5v4.5h7.5v5.5
					h-7.5L2854.2,728.9L2854.2,728.9z M2796.7,694v4.5h52V694H2796.7z M2796.7,704v4.5h52V704H2796.7z"/>
				<path class="st2" d="M2897.6,566.9c31.9,0,57.7,25.8,57.7,57.7s-25.8,57.7-57.7,57.7s-57.7-25.8-57.7-57.7l0,0
					C2839.9,592.7,2865.7,566.9,2897.6,566.9L2897.6,566.9z"/>
				<path class="st3" d="M2891.4,573c24.4,0,44.2,19.8,44.2,44.2s-19.8,44.2-44.2,44.2s-44.2-19.8-44.2-44.2l0,0
					C2847.2,592.8,2867,573,2891.4,573z"/>
				<path class="st1" d="M2897.6,564.2c33.4,0,60.5,27,60.5,60.4c0,32.4-25.4,59-57.8,60.4v43.9c-0.1,1.5-1.4,2.7-2.9,2.6
					c-1.4-0.1-2.5-1.2-2.6-2.6V685c-33.4-1.5-59.2-29.7-57.7-63.1C2838.6,589.6,2865.2,564.1,2897.6,564.2z M2907.9,632.3
					c1.1-1.1,2.8-1.1,3.9,0c1.1,1.1,1.1,2.8,0,3.9l-11.4,11.4v32c30.3-1.5,53.7-27.3,52.2-57.7c-1.5-30.3-27.3-53.7-57.7-52.2
					s-53.7,27.3-52.2,57.7c1.4,28.2,24,50.8,52.2,52.2v-13.8l-20.9-20.9c-1.1-1.1-1.1-2.8,0-3.9c1.1-1.1,2.8-1.1,3.9,0l17,17v-33.4
					c-0.1-1.5,1.1-2.8,2.6-2.9c1.5-0.1,2.8,1.1,2.9,2.6c0,0.1,0,0.2,0,0.3v15.2L2907.9,632.3L2907.9,632.3z"/>
				<path class="st2" d="M1624.5,566.9c31.9,0,57.7,25.8,57.7,57.7s-25.8,57.7-57.7,57.7s-57.7-25.8-57.7-57.7
					S1592.6,566.9,1624.5,566.9L1624.5,566.9z"/>
				<path class="st3" d="M1618.3,573c24.4,0,44.2,19.8,44.2,44.2s-19.8,44.2-44.2,44.2c-24.4,0-44.2-19.8-44.2-44.2l0,0
					C1574.1,592.8,1593.9,573,1618.3,573z"/>
				<path class="st1" d="M1634.8,632.3c1.1-1.1,2.8-1.1,3.9,0c1.1,1.1,1.1,2.8,0,3.9l0,0l-11.4,11.4v32
					c30.3-1.5,53.7-27.3,52.2-57.7c-1.5-30.3-27.3-53.7-57.7-52.2c-30.3,1.5-53.7,27.3-52.2,57.7c1.4,28.2,24,50.8,52.2,52.2v-13.8
					l-21-20.9c-1.1-1.1-1.1-2.8,0-3.9c1.1-1.1,2.8-1.1,3.9,0l17,17v-33.4c-0.1-1.5,1.1-2.8,2.6-2.9c1.5-0.1,2.8,1.1,2.9,2.6
					c0,0.1,0,0.2,0,0.3v15.2L1634.8,632.3z M1627.2,685v43.9c-0.1,1.5-1.4,2.7-2.9,2.6c-1.4-0.1-2.5-1.2-2.6-2.6V685
					c-33.4-1.5-59.2-29.8-57.7-63.1c1.5-33.4,29.8-59.2,63.1-57.7c33.4,1.5,59.2,29.8,57.7,63.1
					C1683.5,658.6,1658.5,683.6,1627.2,685z"/>
			</g>
		</g>
	</g>
</g>
</svg>
