<?xml version="1.0" encoding="utf-8"?>
<!-- Generator: Adobe Illustrator 19.0.1, SVG Export Plug-In . SVG Version: 6.00 Build 0)  -->
<svg version="1.1" id="Слой_1" xmlns="http://www.w3.org/2000/svg" xmlns:xlink="http://www.w3.org/1999/xlink" x="0px" y="0px"
	 viewBox="662 70.9 1920 700" style="enable-background:new 662 70.9 1920 700;" xml:space="preserve">
<style type="text/css">
	.st0{fill:#EFEFEF;}
	.st1{fill:#BCBEC0;}
	.st2{fill:#DDDDDD;}
	.st3{fill:#FFFFFF;}
</style>
<polygon id="Gray_Box" class="st0" points="662,71.6 2582,71.6 2582,766.6 662,766.6 "/>
<polygon id="Ground" class="st1" points="2363.2,764.6 2291.8,764.6 888.4,764.6 888.4,764.6 662,764.6 662,770.1 888.4,770.1 
	926.3,770.1 2291.8,770.1 2363.2,770.1 2582,770.1 2582,764.6 "/>
<path class="st1" d="M2400.7,768.3c-0.1,1.5-1.4,2.7-2.9,2.6c-1.4-0.1-2.5-1.2-2.6-2.6v-15h-52v15c-0.1,1.5-1.4,2.7-2.9,2.6
	c-1.4-0.1-2.5-1.2-2.6-2.6v-15h-7.5v-5.5h7.5v-4.5h-7.5v-5.5h7.5v-4.5h-7.5v-5.5h77.9v5.5h-7.5v4.5h7.5v5.5h-7.5v4.5h7.5v5.5h-7.5
	L2400.7,768.3L2400.7,768.3z M2343.2,733.4v4.5h52v-4.5H2343.2z M2343.2,743.4v4.5h52v-4.5H2343.2z"/>
<path class="st2" d="M2243.6,605.6c31.9,0,57.7,25.8,57.7,57.7s-25.8,57.7-57.7,57.7s-57.7-25.8-57.7-57.7l0,0
	C2185.9,631.4,2211.7,605.6,2243.6,605.6L2243.6,605.6z"/>
<path class="st3" d="M2237.4,611.7c24.4,0,44.2,19.8,44.2,44.2s-19.8,44.2-44.2,44.2s-44.2-19.8-44.2-44.2l0,0
	C2193.2,631.5,2213,611.7,2237.4,611.7z"/>
<path class="st1" d="M2243.6,602.9c33.4,0,60.5,27,60.5,60.4c0,32.4-25.4,59-57.8,60.4v43.9c-0.1,1.5-1.4,2.7-2.9,2.6
	c-1.4-0.1-2.5-1.2-2.6-2.6v-43.9c-33.4-1.5-59.2-29.7-57.7-63.1C2184.6,628.3,2211.2,602.8,2243.6,602.9z M2253.9,671
	c1.1-1.1,2.8-1.1,3.9,0c1.1,1.1,1.1,2.8,0,3.9l-11.4,11.4v32c30.3-1.5,53.7-27.3,52.2-57.7c-1.5-30.3-27.3-53.7-57.7-52.2
	s-53.7,27.3-52.2,57.7c1.4,28.2,24,50.8,52.2,52.2v-13.8l-20.9-20.9c-1.1-1.1-1.1-2.8,0-3.9c1.1-1.1,2.8-1.1,3.9,0l17,17v-33.4
	c-0.1-1.5,1.1-2.8,2.6-2.9c1.5-0.1,2.8,1.1,2.9,2.6c0,0.1,0,0.2,0,0.3v15.2L2253.9,671L2253.9,671z"/>
<path class="st2" d="M970.5,605.6c31.9,0,57.7,25.8,57.7,57.7s-25.8,57.7-57.7,57.7s-57.7-25.8-57.7-57.7S938.6,605.6,970.5,605.6
	L970.5,605.6z"/>
<path class="st3" d="M964.3,611.7c24.4,0,44.2,19.8,44.2,44.2s-19.8,44.2-44.2,44.2c-24.4,0-44.2-19.8-44.2-44.2l0,0
	C920.1,631.5,939.9,611.7,964.3,611.7z"/>
<path class="st1" d="M980.8,671c1.1-1.1,2.8-1.1,3.9,0s1.1,2.8,0,3.9l0,0l-11.4,11.4v32c30.3-1.5,53.7-27.3,52.2-57.7
	c-1.5-30.3-27.3-53.7-57.7-52.2c-30.3,1.5-53.7,27.3-52.2,57.7c1.4,28.2,24,50.8,52.2,52.2v-13.8l-21-20.9c-1.1-1.1-1.1-2.8,0-3.9
	c1.1-1.1,2.8-1.1,3.9,0l17,17v-33.4c-0.1-1.5,1.1-2.8,2.6-2.9c1.5-0.1,2.8,1.1,2.9,2.6c0,0.1,0,0.2,0,0.3v15.2L980.8,671z
	 M973.2,723.7v43.9c-0.1,1.5-1.4,2.7-2.9,2.6c-1.4-0.1-2.5-1.2-2.6-2.6v-43.9c-33.4-1.5-59.2-29.8-57.7-63.1
	c1.5-33.4,29.8-59.2,63.1-57.7c33.4,1.5,59.2,29.8,57.7,63.1C1029.5,697.3,1004.5,722.3,973.2,723.7z"/>
</svg>
