<?xml version="1.0" encoding="utf-8"?>
<!-- Generator: Adobe Illustrator 19.0.1, SVG Export Plug-In . SVG Version: 6.00 Build 0)  -->
<svg version="1.1" id="Слой_1" xmlns="http://www.w3.org/2000/svg" xmlns:xlink="http://www.w3.org/1999/xlink" x="0px" y="0px"
	 viewBox="41 362.1 406.6 260.3" style="enable-background:new 41 362.1 406.6 260.3;" xml:space="preserve">
<style type="text/css">
	.st0{fill:#FFFFFF;}
	.house-outline{fill:#BDBEC0; transition: .5s;}
</style>
<g id="House_Illustration_2_">
	<path class="st0" d="M445.1,417.3v96.6H427v68.8h3.7v37.2H68.9v-37.2h3.7V476.1l-21.2,16c-0.9,0.7-2.1,0.5-2.8-0.4l-4.8-6.4
		c-0.7-0.9-0.5-2.1,0.4-2.8l133.1-100.3l46.6,35.1h34.5v-11.6h3.2v-22.6h-3.2v-9.2h3.2v-9.2H282v9.2h3.2v9.2H282v22.6h3.2v11.6
		L445.1,417.3L445.1,417.3z"/>
	<path class="house-outline" id="outline" d="M149.8,601.4v6.9h-22.3v-6.9H149.8L149.8,601.4z M226.5,580.2v-75.8h29.2v75.8H226.5L226.5,580.2z
		 M248.3,571.4c1.4,0,2.5-1.1,2.5-2.5v-55c0-1.4-1.1-2.5-2.5-2.5h-14.4c-1.4,0-2.5,1.1-2.5,2.5v55c0,1.4,1.1,2.5,2.5,2.5H248.3
		L248.3,571.4z M240.8,566.5h-4.4v-37.4c1.5-0.6,2.9-1.2,4.4-1.7V566.5L240.8,566.5z M260.6,580.2v-78.3c0-1.4-1.1-2.5-2.5-2.5H224
		c-1.4,0-2.5,1.1-2.5,2.5v78.3h-5.4V496c3.3-2.9,7.1-5.1,11.1-6.6c4.4-1.7,9-2.6,13.8-2.6s9.5,0.9,13.8,2.6c4,1.5,7.8,3.8,11.1,6.6
		v84.2H260.6L260.6,580.2z M120.6,589.5c-1.4,0-2.5,1.1-2.5,2.5v18.8c0,1.4,1.1,2.5,2.5,2.5h31.7c1.4,0,2.5-1.1,2.5-2.5V592
		c0-1.4-1.1-2.5-2.5-2.5H120.6L120.6,589.5z M269.8,589.5h-57.4v-4.4h1.2H224h34.1h10.4h1.2v4.4H269.8z M269.8,598.8h-57.4v-4.4
		h57.4L269.8,598.8L269.8,598.8z M269.8,608.3h-57.4v-4.6h57.4L269.8,608.3L269.8,608.3z M118.1,566.5H113v-62.2h5.1V566.5
		L118.1,566.5z M154.7,504.3h9.5v62.2h-9.5V504.3L154.7,504.3z M149.8,566.5H123v-62.2h26.7v62.2H149.8z M106.1,492.4
		c-1.4,0-2.5,1.1-2.5,2.5V569c0,1.4,1.1,2.5,2.5,2.5h14.4h31.7h14.4c1.4,0,2.5-1.1,2.5-2.5v-74.1c0-1.4-1.1-2.5-2.5-2.5h-14.4h-31.6
		H106.1L106.1,492.4z M177.2,419.4c-5.6,0-10.7,2.3-14.4,6c-3.7,3.7-6,8.8-6,14.4c0,5.6,2.3,10.7,6,14.4c3.7,3.7,8.8,6,14.4,6
		s10.7-2.3,14.4-6c3.7-3.7,6-8.8,6-14.4c0-5.6-2.3-10.7-6-14.4C188,421.7,182.9,419.4,177.2,419.4L177.2,419.4z M197.7,481v99.2
		h-1.2H75.1V477.3l102.2-77l49.7,37.4l-56.8,42.8c-1,0.7-1.6,1.8-1.7,2.9c-0.2,1.1,0.1,2.3,0.9,3.3l4.8,6.4c0.7,1,1.8,1.6,2.9,1.7
		c1.1,0.2,2.3-0.1,3.3-0.9L197.7,481L197.7,481z M282.9,473.6l-40.3-30.4c-0.9-0.7-2.2-0.6-3,0l-40.8,30.7c-0.1,0.1-0.1,0.1-0.2,0.2
		l-20.7,15.6l-4.3-5.6l59-44.5h0.1l8.5-6.4l67.5,50.9l-4.3,5.6L284,474.5C283.7,474.1,283.3,473.8,282.9,473.6L282.9,473.6z
		 M270.1,493c-4-3.5-8.5-6.3-13.4-8.2c-4.9-1.9-10.2-2.9-15.6-2.9c-5.3,0-10.6,1-15.6,2.9c-4.9,1.9-9.5,4.6-13.4,8.2
		c-0.6,0.5-0.9,1.1-0.9,1.9v85.3H210h-7.3V477.3l38.5-29l38.5,29v24.6v12v66.3h-7.3H271v-85.3C271,494.1,270.6,493.4,270.1,493
		L270.1,493z M401.7,559.6h-94.4v-24h94.4V559.6L401.7,559.6z M401.7,588.5h-94.4v-5.8v-18.2h94.4v18.2V588.5L401.7,588.5z
		 M442.6,504.4v7.1H427H284.5v-7.1H442.6L442.6,504.4z M424.5,516.4v63.8h-17.8V562v-28.9c0-1.4-1.1-2.5-2.5-2.5h-99.4
		c-1.4,0-2.5,1.1-2.5,2.5V562v18.2h-16.6h-1.2v-63.8H424.5L424.5,516.4z M260.9,380.6v-4.3h0.7H282h0.7v4.3H282h-20.4H260.9
		L260.9,380.6z M279.6,371.4h-15.4v-4.3h15.4V371.4L279.6,371.4z M282.7,408.2v9.1v11.3h-21.8v-11.3v-9.1h0.7H282H282.7L282.7,408.2
		z M279.6,403.2h-15.4v-17.7h15.4V403.2L279.6,403.2z M222.6,419.4l14.4,10.9l-5.9,4.4l-52.3-39.4c-0.9-0.7-2.2-0.6-3,0L71.3,474
		c-0.1,0-0.1,0.1-0.2,0.2l-20.7,15.6l-4.3-5.6l131.2-98.9l45,33.9C222.4,419.2,222.5,419.3,222.6,419.4L222.6,419.4z M231.3,419.8
		H256v11.3c0,1.4,1.1,2.5,2.5,2.5h26.7c1.4,0,2.5-1.1,2.5-2.5v-11.3h155v79.7H284.5v-18.4l17.2,13c1,0.7,2.2,1,3.3,0.9
		c1.1-0.2,2.2-0.7,2.9-1.7l4.8-6.4l0,0l0,0c0.7-1,1-2.2,0.9-3.3c-0.2-1.1-0.7-2.2-1.7-2.9l-69.3-52.2l0,0l0,0L231.3,419.8
		L231.3,419.8z M163.1,446c1.1-8.9,8.6-15.7,17.8-15.7c4,0,7.6,1.3,10.6,3.5l0,0c0.8,1.8,1.2,3.9,1.2,6c0,4.3-1.7,8.1-4.5,10.9
		s-6.7,4.5-10.9,4.5s-8.1-1.7-10.9-4.5C165,449.4,163.9,447.8,163.1,446L163.1,446L163.1,446z M71.4,619.9v-34.7h1.2h121.3v34.7
		c0,1.4,1.1,2.5,2.5,2.5s2.5-1.1,2.5-2.5v-34.7h1.2h7.3v6.8v9.3v9.5v9.1c0,1.4,1.1,2.5,2.5,2.5s2.5-1.1,2.5-2.5v-6.6h57.4v6.6
		c0,1.4,1.1,2.5,2.5,2.5s2.5-1.1,2.5-2.5v-9.1v-9.5V592v-6.8h7.3h1.2v34.7c0,1.4,1.1,2.5,2.5,2.5s2.5-1.1,2.5-2.5v-34.7h14.1v5.8
		v28.9c0,1.4,1.1,2.5,2.5,2.5s2.5-1.1,2.5-2.5v-26.5h94.4v26.4c0,1.4,1.1,2.5,2.5,2.5s2.5-1.1,2.5-2.5v-28.9v-5.8H427h1.2v34.7
		c0,1.4,1.1,2.5,2.5,2.5s2.5-1.1,2.5-2.5v-37.2c0-1.4-1.1-2.5-2.5-2.5h-1.2v-63.7h15.6c1.4,0,2.5-1.1,2.5-2.5v-12v-84.6
		c0-1.4-1.1-2.5-2.5-2.5H287.7v-9.1c0-1.4-1.1-2.5-2.5-2.5h-0.7v-17.7h0.7c1.4,0,2.5-1.1,2.5-2.5v-9.2c0-1.4-1.1-2.5-2.5-2.5h-0.7
		v-6.7c0-1.4-1.1-2.5-2.5-2.5h-20.4c-1.4,0-2.5,1.1-2.5,2.5v6.7h-0.7c-1.4,0-2.5,1.1-2.5,2.5v9.2c0,1.4,1.1,2.5,2.5,2.5h0.7v17.7
		h-0.7c-1.4,0-2.5,1.1-2.5,2.5v9.1h-31.2l-45.9-34.6c-0.9-0.7-2.1-0.7-3,0l-133,100.3c-1,0.7-1.6,1.8-1.7,2.9
		c-0.2,1.1,0.1,2.3,0.9,3.3l4.8,6.4c0.7,1,1.8,1.6,2.9,1.7c1.1,0.2,2.3-0.1,3.3-0.9l17.2-13v99.2H69c-1.4,0-2.5,1.1-2.5,2.5v37.2
		c0,1.4,1.1,2.5,2.5,2.5C70.3,622.3,71.4,621.2,71.4,619.9L71.4,619.9z M243,428.7c-0.1-0.2-0.3-0.3-0.4-0.5L243,428.7L243,428.7z
		 M179.3,380.7c-0.1-0.2-0.3-0.3-0.4-0.5L179.3,380.7L179.3,380.7z"/>
</g>
</svg>
