<svg xmlns="http://www.w3.org/2000/svg" viewBox="0 0 227.22 407.48">
    <polygon class="cls-1"
             points="202.13 17.47 202.13 2.47 220.39 2.47 220.39 82.18 220.39 97.19 224.75 97.19 224.75 109.79 220.39 109.79 220.39 288.66 224.75 288.66 224.75 301.26 220.39 301.26 220.39 407.48 6.83 407.48 6.83 301.26 2.47 301.26 2.47 288.66 6.83 288.66 6.83 109.79 2.47 109.79 2.47 97.19 6.83 97.19 6.83 82.19 6.83 2.47 25.09 2.47 25.09 17.47 202.13 17.47 202.13 17.47"/>
    <path class="house-outline"
          d="M107.1,351.49h17.8V330.4H107.1v21.09Zm17.8,4.93H107.1v14.79h17.8V356.42Zm2.47,19.73H99.86a2.47,2.47,0,0,1-2.47-2.47V320.54a2.47,2.47,0,0,1,2.47-2.47h27.51a2.47,2.47,0,0,1,2.46,2.47v53.14a2.47,2.47,0,0,1-2.46,2.47ZM45,351.49h17.8V330.4H45v21.09Zm17.8,4.93H45v14.79h17.8V356.42Zm2.47,19.73H37.74a2.48,2.48,0,0,1-2.47-2.47V320.54a2.48,2.48,0,0,1,2.47-2.47H65.25a2.48,2.48,0,0,1,2.47,2.47v53.14a2.48,2.48,0,0,1-2.47,2.47Z"/>
    <path class="house-outline"
          d="M189.48,318H162a2.47,2.47,0,0,0-2.46,2.47v87h4.93v-6.57H187v6.57H192v-87A2.47,2.47,0,0,0,189.48,318Zm-2.47,78H169.22V380.72H187Zm0-20.16H169.22V330.29H187Z"/>
    <path class="house-outline"
          d="M94.24,225.54a2.46,2.46,0,0,0,2.44,2.11h.71v50.67a2.46,2.46,0,0,0,2.47,2.47h27.51a2.46,2.46,0,0,0,2.46-2.47V227.65h.72a2.47,2.47,0,0,0,2.44-2.11l1.68-11.46a2.61,2.61,0,0,0,.05-.48,2.48,2.48,0,0,0-2.47-2.47H121.72v-1.45a2.46,2.46,0,0,0-2.47-2.47H108.58a2.47,2.47,0,0,0-2.47,2.47v1.45H95a2.47,2.47,0,0,0-2.47,2.47,2.59,2.59,0,0,0,0,.48Zm30.66,50.31H107.1V261.07h17.8Zm0-19.72H107.1V235h17.8Zm-16.32-40.06a2.48,2.48,0,0,0,2.47-2.47v-1.46h5.73v1.46a2.48,2.48,0,0,0,2.47,2.47h10.14l-1,6.65H98.81l-1-6.65Z"/>
    <path class="house-outline"
          d="M99.86,185.54h27.51a2.47,2.47,0,0,0,2.46-2.47V129.93a2.47,2.47,0,0,0-2.46-2.47H99.86a2.47,2.47,0,0,0-2.47,2.47v53.14A2.47,2.47,0,0,0,99.86,185.54Zm7.24-45.75h17.8v21.08H107.1Zm0,26h17.8V180.6H107.1Z"/>
    <path class="house-outline"
          d="M37.74,185.54H65.25a2.48,2.48,0,0,0,2.47-2.47V129.93a2.48,2.48,0,0,0-2.47-2.47H37.74a2.48,2.48,0,0,0-2.47,2.47v53.14A2.48,2.48,0,0,0,37.74,185.54ZM45,139.79h17.8v21.08H45Zm0,26h17.8V180.6H45Z"/>
    <path class="house-outline"
          d="M162,185.54h27.51a2.47,2.47,0,0,0,2.47-2.47V129.93a2.47,2.47,0,0,0-2.47-2.47H162a2.47,2.47,0,0,0-2.46,2.47v53.14A2.47,2.47,0,0,0,162,185.54Zm7.25-45.75H187v21.08H169.22Zm0,26H187V180.6H169.22Z"/>
    <path class="house-outline"
          d="M32.12,225.54a2.47,2.47,0,0,0,2.44,2.11h.71v50.67a2.47,2.47,0,0,0,2.47,2.47H65.25a2.47,2.47,0,0,0,2.47-2.47V227.65h.71a2.47,2.47,0,0,0,2.44-2.11l1.68-11.46a2.61,2.61,0,0,0,0-.48,2.48,2.48,0,0,0-2.47-2.47H59v-1.45a2.47,2.47,0,0,0-2.47-2.47H46.46A2.47,2.47,0,0,0,44,209.68v1.45H32.86a2.48,2.48,0,0,0-2.47,2.47,2.61,2.61,0,0,0,.05.48Zm30.66,50.31H45V261.07h17.8Zm0-19.72H45V235h17.8ZM46.46,216.07a2.47,2.47,0,0,0,2.47-2.47v-1.46h5.13v1.46a2.47,2.47,0,0,0,2.47,2.47H67.28l-1,6.65H36.69l-1-6.65Z"/>
    <path class="house-outline"
          d="M2.47,303.73H4.36V407.44H9.3V303.73H217.92V407.44h4.94V303.73h1.89a2.47,2.47,0,0,0,2.47-2.47v-12.6a2.46,2.46,0,0,0-2.47-2.47h-1.89V112.26h1.89a2.47,2.47,0,0,0,2.47-2.47V97.19a2.47,2.47,0,0,0-2.47-2.47h-1.89V2.47A2.47,2.47,0,0,0,220.39,0H202.14a2.47,2.47,0,0,0-2.47,2.47V15H27.56V2.47A2.48,2.48,0,0,0,25.09,0H6.83A2.48,2.48,0,0,0,4.36,2.47V94.72H2.47A2.48,2.48,0,0,0,0,97.19v12.6a2.48,2.48,0,0,0,2.47,2.47H4.36V286.19H2.47A2.47,2.47,0,0,0,0,288.66v12.6A2.48,2.48,0,0,0,2.47,303.73ZM204.6,17.47V4.94h13.32V79.72H204.6Zm0,67.18h13.32V94.72H204.6Zm-177-2.47V19.94H199.67V94.72H164.44V82.18h0A2.46,2.46,0,0,0,163,79.94L114.65,58.12h0a2.45,2.45,0,0,0-2,0L64.37,79.88a2.46,2.46,0,0,0-1.59,2.3V94.72H27.56Zm132,1.59v11H67.72v-11l45.89-20.72ZM9.3,4.94H22.62V79.72H9.3Zm0,79.71H22.62V94.72H9.3Zm-4.36,15H222.28v7.66H4.94Zm4.36,16v-3.42H217.92v3.42Zm208.62,4.94V286.19H9.3V120.62Zm-213,170.5H222.28v7.67H4.94Z"/>
    <path class="house-outline"
          d="M156.35,225.54a2.47,2.47,0,0,0,2.44,2.11h.72v50.67a2.46,2.46,0,0,0,2.46,2.47h27.51a2.46,2.46,0,0,0,2.47-2.47V227.65h.71a2.46,2.46,0,0,0,2.44-2.11l1.69-11.46a2.59,2.59,0,0,0,0-.48,2.47,2.47,0,0,0-2.47-2.47H183.23v-1.45a2.47,2.47,0,0,0-2.47-2.47H170.7a2.46,2.46,0,0,0-2.47,2.47v1.45H157.09a2.48,2.48,0,0,0-2.47,2.47,2.61,2.61,0,0,0,0,.48ZM187,275.85H169.22V261.07H187Zm0-19.72H169.22V235H187ZM170.7,216.07a2.47,2.47,0,0,0,2.46-2.47v-1.46h5.13v1.46a2.48,2.48,0,0,0,2.47,2.47h10.75l-1,6.65H160.92l-1-6.65Z"/>
</svg>